# xmcd
#
# Track frame offsets: 
#        183
#        17053
#        39225
#
# Disc length: 773 seconds
#
# Revision: 1
# Processed by: cddbd v1.5.2PL0 Copyright (c) Steve Scherf et al.
# Submitted via: ExactAudioCopy v0.95b4
#
DISCID=17030303
DTITLE=Baby Animals - Painless
DYEAR=1991
DGENRE=Hard Rock
TTITLE0=Painless
TTITLE1=Dedicate
TTITLE2=Early Warning (Live)
EXTD=
EXTT0=
EXTT1=
EXTT2=
PLAYORDER=
